<svg width="18" height="18" viewBox="0 0 18 18" fill="none" xmlns="http://www.w3.org/2000/svg">
<g clip-path="url(#clip0_383_3013)">
<path d="M9.22198 11.0453C9.35967 11.1086 9.51478 11.123 9.66178 11.0863C9.80877 11.0496 9.93887 10.9639 10.0307 10.8433L10.2673 10.5333C10.3915 10.3677 10.5526 10.2333 10.7377 10.1408C10.9228 10.0482 11.127 9.99999 11.334 9.99999H13.334C13.6876 9.99999 14.0267 10.1405 14.2768 10.3905C14.5268 10.6406 14.6673 10.9797 14.6673 11.3333V13.3333C14.6673 13.6869 14.5268 14.0261 14.2768 14.2761C14.0267 14.5262 13.6876 14.6667 13.334 14.6667C10.1514 14.6667 7.09914 13.4024 4.8487 11.1519C2.59827 8.90151 1.33398 5.84926 1.33398 2.66666C1.33398 2.31304 1.47446 1.9739 1.72451 1.72385C1.97456 1.4738 2.3137 1.33333 2.66732 1.33333H4.66732C5.02094 1.33333 5.36008 1.4738 5.61013 1.72385C5.86017 1.9739 6.00065 2.31304 6.00065 2.66666V4.66666C6.00065 4.87365 5.95246 5.07781 5.85989 5.26295C5.76732 5.44809 5.63291 5.60913 5.46732 5.73333L5.15532 5.96733C5.03293 6.06078 4.94666 6.19372 4.91118 6.34356C4.87569 6.4934 4.89317 6.65091 4.96065 6.78933C5.87177 8.63991 7.37027 10.1365 9.22198 11.0453Z" stroke="#333232" stroke-width="1.5" stroke-linecap="round" stroke-linejoin="round"/>
</g>
<defs>
<clipPath id="clip0_383_3013">
<rect width="18" height="18" fill="white"/>
</clipPath>
</defs>
</svg>
