<svg width="16" height="16" viewBox="0 0 16 16" fill="none" xmlns="http://www.w3.org/2000/svg">
<g clip-path="url(#clip0_2014_18)">
<path d="M11.9997 6.66666C11.9997 5.25217 11.4378 3.89562 10.4376 2.89543C9.43738 1.89523 8.08083 1.33333 6.66634 1.33333C5.25185 1.33333 3.8953 1.89523 2.8951 2.89543C1.89491 3.89562 1.33301 5.25217 1.33301 6.66666C1.33301 9.99533 5.02567 13.462 6.26567 14.5327C6.38125 14.6193 6.52187 14.6661 6.66634 14.666M11.9997 14.6667V12.6667M9.99967 14.6667C9.82286 14.6667 9.65329 14.5964 9.52827 14.4714C9.40325 14.3464 9.33301 14.1768 9.33301 14V11.3333C9.33299 11.2236 9.36006 11.1156 9.41181 11.0188C9.46356 10.922 9.5384 10.8396 9.62967 10.7787L11.6297 9.44533C11.7392 9.37224 11.868 9.33323 11.9997 9.33323C12.1314 9.33323 12.2601 9.37224 12.3697 9.44533L14.3697 10.7787C14.461 10.8396 14.5358 10.922 14.5875 11.0188C14.6393 11.1156 14.6664 11.2236 14.6663 11.3333V14C14.6663 14.1768 14.5961 14.3464 14.4711 14.4714C14.3461 14.5964 14.1765 14.6667 13.9997 14.6667H9.99967ZM8.66634 6.66666C8.66634 7.77123 7.77091 8.66666 6.66634 8.66666C5.56177 8.66666 4.66634 7.77123 4.66634 6.66666C4.66634 5.56209 5.56177 4.66666 6.66634 4.66666C7.77091 4.66666 8.66634 5.56209 8.66634 6.66666Z" stroke="#333232" stroke-width="1.5" stroke-linecap="round" stroke-linejoin="round"/>
</g>
<defs>
<clipPath id="clip0_2014_18">
<rect width="16" height="16" fill="white"/>
</clipPath>
</defs>
</svg>
