<svg width="24" height="24" viewBox="0 0 24 24" fill="none" xmlns="http://www.w3.org/2000/svg">
<g opacity="0.7">
<path d="M14.2 10.5406V6.22861C14.2 5.25678 14.0339 5.06195 13.122 5.06195L10.537 5.00012C9.73178 5.00012 9.32919 5.00012 9.16639 5.27662C9.00359 5.55311 9.18399 5.93228 9.54369 6.68827C9.74388 7.10827 9.85168 7.41276 9.85168 7.88409V10.9874C9.85168 11.9674 9.85168 12.4586 9.49969 12.6044C9.14769 12.7491 8.85619 12.4201 8.27099 11.7621C6.841 10.1474 6.09521 8.13143 5.60571 5.93344C5.50451 5.47845 5.45391 5.25095 5.30211 5.12495C5.15031 4.99895 4.93361 5.00012 4.50241 5.00012H2.08243C1.55223 5.00012 1.28713 5.00012 1.12103 5.19845C0.956035 5.39795 0.987935 5.65228 1.05173 6.15977C1.63253 10.7412 5.43081 18.2533 12.4477 18.9697C13.6907 19.0957 14.2 18.7398 14.2 17.2955C14.2 16.4765 14.1835 15.1535 15.1548 14.9797C15.664 14.8887 16.0061 15.0812 16.5748 15.5864C17.5604 16.4637 18.0774 17.5347 18.4371 18.3478C18.6758 18.8868 18.8529 19 19.4139 19H21.6953C22.8481 19 23.1616 18.7013 22.6479 17.5533C22.0673 16.2659 21.2454 15.1175 20.2323 14.1782C19.5327 13.54 19.184 13.2215 19.1653 12.9859C19.1444 12.7514 19.4007 12.4189 19.9133 11.7539C20.9033 10.4682 22.2519 8.45109 22.8811 6.31027C23.1935 5.24862 22.8998 5.00012 21.8867 5.00012H19.8374C18.8441 5.00012 18.8452 4.96395 18.6109 6.15861C18.2303 8.09643 16.9851 9.95958 15.8147 11.2277C15.2593 11.8297 14.9238 12.1926 14.5773 12.0444C14.2308 11.8962 14.2 11.4459 14.2 10.5406Z" stroke="white" stroke-width="1.5" stroke-linecap="round" stroke-linejoin="round"/>
</g>
</svg>
