<svg width="17" height="17" viewBox="0 0 17 17" fill="none" xmlns="http://www.w3.org/2000/svg">
<path d="M8.25 15.75V15H8.24951L8.25 15.75ZM1.338 11.166L0.646948 11.4575L0.647188 11.458L1.338 11.166ZM1.665 12.096L2.41328 12.0451L2.41306 12.0421L1.665 12.096ZM1.512 12.9008L0.787521 12.7068L0.787463 12.707L1.512 12.9008ZM0.75 15.75L0.0254633 15.5562C-0.0437309 15.815 0.0302915 16.091 0.21967 16.2803C0.409049 16.4697 0.685041 16.5437 0.943769 16.4745L0.75 15.75ZM3.59925 14.988L3.79302 15.7125L3.79324 15.7125L3.59925 14.988ZM4.404 14.835L4.45786 14.0869L4.4519 14.0865L4.404 14.835ZM5.334 15.162L5.04198 15.8528L5.04289 15.8532L5.334 15.162ZM6.34425 7.722L6.92826 8.19256L6.92852 8.19224L6.34425 7.722ZM6.987 6.606L7.73564 6.65156L7.73598 6.64516L6.987 6.606ZM6.75075 4.9425L7.49177 4.8268L7.49166 4.82609L6.75075 4.9425ZM5.12625 4.5975L5.43704 5.28008L5.43932 5.27903L5.12625 4.5975ZM4.52175 5.35275L3.78782 5.19834L3.78774 5.19873L4.52175 5.35275ZM4.581 6.054L5.31263 5.88904L5.31252 5.88854L4.581 6.054ZM6.68925 9.81075L6.15874 10.3409L6.1591 10.3413L6.68925 9.81075ZM10.4468 11.919L10.6122 11.1875L10.6116 11.1873L10.4468 11.919ZM11.1473 11.9783L10.9947 11.2439L10.9932 11.2442L11.1473 11.9783ZM11.9033 11.3738L12.5851 11.6861L12.5857 11.6848L11.9033 11.3738ZM11.5575 9.74925L11.6739 9.00834L11.6737 9.00831L11.5575 9.74925ZM9.894 9.513L9.85484 8.76401L9.8496 8.76432L9.894 9.513ZM8.778 10.1558L9.24823 10.74L9.24824 10.74L8.778 10.1558ZM8.25 15.75V16.5C12.8065 16.5 16.5 12.8065 16.5 8.25H15.75H15C15 11.978 11.978 15 8.25 15V15.75ZM15.75 8.25H16.5C16.5 3.69354 12.8065 0 8.25 0V0.75V1.5C11.978 1.5 15 4.52196 15 8.25H15.75ZM8.25 0.75V0C3.69354 0 0 3.69354 0 8.25H0.75H1.5C1.5 4.52196 4.52196 1.5 8.25 1.5V0.75ZM0.75 8.25H0C0 9.38659 0.230918 10.471 0.646948 11.4575L1.338 11.166L2.02905 10.8745C1.68908 10.0685 1.5 9.18191 1.5 8.25H0.75ZM1.338 11.166L0.647188 11.458C0.754679 11.7123 0.824523 11.8783 0.870653 12.0042C0.917994 12.1335 0.917877 12.1629 0.916937 12.1499L1.665 12.096L2.41306 12.0421C2.39862 11.8416 2.33963 11.6535 2.27916 11.4884C2.21748 11.32 2.13057 11.1147 2.02881 10.874L1.338 11.166ZM1.665 12.096L0.916728 12.1469C0.918906 12.1789 0.913292 12.2371 0.787521 12.7068L1.512 12.9008L2.23648 13.0947C2.33121 12.741 2.43659 12.3881 2.41327 12.0451L1.665 12.096ZM1.512 12.9008L0.787463 12.707L0.0254633 15.5562L0.75 15.75L1.47454 15.9438L2.23654 13.0945L1.512 12.9008ZM0.75 15.75L0.943769 16.4745L3.79302 15.7125L3.59925 14.988L3.40548 14.2635L0.556231 15.0255L0.75 15.75ZM3.59925 14.988L3.79324 15.7125C4.25996 15.5875 4.32169 15.5813 4.3561 15.5835L4.404 14.835L4.4519 14.0865C4.11131 14.0647 3.76204 14.168 3.40526 14.2635L3.59925 14.988ZM4.404 14.835L4.35014 15.5831C4.33708 15.5821 4.3665 15.582 4.49576 15.6294C4.62172 15.6755 4.7877 15.7453 5.04198 15.8528L5.334 15.162L5.62603 14.4712C5.38531 14.3694 5.18004 14.2825 5.01162 14.2208C4.8465 14.1604 4.65842 14.1014 4.45786 14.0869L4.404 14.835ZM5.334 15.162L5.04289 15.8532C6.05819 16.2808 7.14883 16.5007 8.25049 16.5L8.25 15.75L8.24951 15C7.34815 15.0006 6.4558 14.8207 5.62511 14.4708L5.334 15.162ZM5.691 8.53275L6.27501 9.00331L6.92826 8.19256L6.34425 7.722L5.76024 7.25144L5.10699 8.06219L5.691 8.53275ZM6.34425 7.722L6.92852 8.19224C7.01682 8.08253 7.23494 7.83821 7.37715 7.63066C7.54286 7.3888 7.71049 7.0645 7.73562 6.65156L6.987 6.606L6.23839 6.56044C6.23576 6.6035 6.21965 6.6662 6.13973 6.78284C6.09873 6.84268 6.04775 6.90706 5.98117 6.9868C5.92316 7.05629 5.83357 7.16032 5.75998 7.25176L6.34425 7.722ZM6.987 6.606L7.73598 6.64516C7.74127 6.54389 7.72858 6.42856 7.72039 6.35726C7.70981 6.26521 7.69391 6.14879 7.67377 6.01047C7.63341 5.73318 7.57207 5.34109 7.49177 4.8268L6.75075 4.9425L6.00973 5.0582C6.09068 5.57666 6.15047 5.95895 6.18942 6.22653C6.20894 6.36065 6.22224 6.45929 6.2302 6.52854C6.24054 6.61853 6.23573 6.61074 6.23802 6.56684L6.987 6.606ZM6.75075 4.9425L7.49166 4.82609C7.41559 4.34193 7.11414 4.02734 6.75265 3.87676C6.45755 3.75383 6.14549 3.75 5.97975 3.75V4.5V5.25C6.05044 5.25 6.10172 5.25219 6.14136 5.25688C6.182 5.26169 6.18883 5.26684 6.17585 5.26143C6.15865 5.25426 6.11314 5.23088 6.06977 5.17804C6.02459 5.123 6.01204 5.07294 6.00984 5.05891L6.75075 4.9425ZM5.97975 4.5V3.75C5.60705 3.75 5.20611 3.73547 4.81318 3.91597L5.12625 4.5975L5.43932 5.27903C5.44831 5.27491 5.46698 5.2658 5.54051 5.25908C5.63217 5.2507 5.75327 5.25 5.97975 5.25V4.5ZM5.12625 4.5975L4.81547 3.91492C4.54366 4.03868 4.3198 4.24501 4.16048 4.44412C4.00112 4.64329 3.84918 4.90667 3.78782 5.19834L4.52175 5.35275L5.25568 5.50716C5.2542 5.51421 5.25599 5.50232 5.27075 5.47369C5.28479 5.44646 5.30542 5.41411 5.33171 5.38126C5.358 5.3484 5.38497 5.32125 5.40834 5.30169C5.43293 5.28112 5.44391 5.27695 5.43703 5.28008L5.12625 4.5975ZM4.52175 5.35275L3.78774 5.19873C3.70115 5.61138 3.78305 5.92579 3.84948 6.21946L4.581 6.054L5.31252 5.88854C5.27373 5.71704 5.25835 5.6448 5.25208 5.58835C5.24842 5.55532 5.24903 5.53886 5.25576 5.50677L4.52175 5.35275ZM4.581 6.054L3.84936 6.21896C4.18275 7.69765 4.96284 9.14418 6.15874 10.3409L6.68925 9.81075L7.21976 9.2806C6.21966 8.27982 5.58225 7.08485 5.31263 5.88904L4.581 6.054ZM6.68925 9.81075L6.1591 10.3413C7.35584 11.5372 8.80241 12.3173 10.2819 12.6507L10.4468 11.919L10.6116 11.1873C9.41509 10.9177 8.22016 10.2803 7.2194 9.28024L6.68925 9.81075ZM10.4468 11.919L10.2813 12.6505C10.5747 12.7169 10.8885 12.7989 11.3013 12.7123L11.1473 11.9783L10.9932 11.2442C10.961 11.251 10.9448 11.2516 10.9122 11.2479C10.8559 11.2417 10.784 11.2263 10.6122 11.1875L10.4468 11.919ZM11.1473 11.9783L11.2998 12.7126C11.5929 12.6517 11.857 12.4991 12.056 12.3398C12.2553 12.1803 12.4611 11.9567 12.5851 11.6861L11.9033 11.3738L11.2214 11.0614C11.2243 11.0551 11.2197 11.0666 11.1989 11.0915C11.1791 11.1151 11.1517 11.1423 11.1188 11.1686C11.0859 11.195 11.0536 11.2155 11.0266 11.2294C10.9982 11.244 10.9868 11.2456 10.9947 11.2439L11.1473 11.9783ZM11.9033 11.3738L12.5857 11.6848C12.7644 11.2929 12.75 10.8932 12.75 10.5203H12H11.25C11.25 10.7466 11.2493 10.868 11.241 10.96C11.2343 11.0341 11.2251 11.0533 11.2208 11.0627L11.9033 11.3738ZM12 10.5203H12.75C12.75 10.3543 12.7462 10.0421 12.6232 9.74691C12.4724 9.38508 12.1575 9.08432 11.6739 9.00834L11.5575 9.74925L11.4411 10.4902C11.4273 10.488 11.3774 10.4756 11.3223 10.4304C11.2694 10.387 11.2459 10.3414 11.2386 10.324C11.2332 10.3109 11.2383 10.3176 11.2431 10.3583C11.2478 10.398 11.25 10.4493 11.25 10.5203H12ZM11.5575 9.74925L11.6737 9.00831C11.1591 8.92758 10.7669 8.86623 10.4893 8.82591C10.3508 8.8058 10.2343 8.78997 10.1422 8.77945C10.0706 8.77127 9.95572 8.75875 9.85484 8.76402L9.894 9.513L9.93316 10.262C9.88966 10.2643 9.88229 10.2595 9.972 10.2698C10.0412 10.2777 10.1397 10.2909 10.2737 10.3103C10.5409 10.3491 10.9232 10.4089 11.4413 10.4902L11.5575 9.74925ZM9.894 9.513L9.8496 8.76432C9.43612 8.78884 9.11131 8.95694 8.86956 9.12262C8.66199 9.26487 8.41739 9.48325 8.30776 9.57148L8.778 10.1558L9.24824 10.74C9.33972 10.6664 9.44377 10.5768 9.51334 10.5187C9.59316 10.452 9.65762 10.401 9.71751 10.3599C9.83444 10.2798 9.89663 10.2642 9.9384 10.2617L9.894 9.513ZM8.778 10.1558L8.30777 9.57147L7.49702 10.224L7.96725 10.8083L8.43748 11.3925L9.24823 10.74L8.778 10.1558Z" fill="white"/>
</svg>
