<svg xmlns="http://www.w3.org/2000/svg" xmlns:xlink="http://www.w3.org/1999/xlink"><defs>
<clipPath id="clip0_383_2038">
<rect width="55" height="15" fill="white"/>
</clipPath>

<clipPath id="clip0_383_3013">
<rect width="18" height="18" fill="white"/>
</clipPath>

<clipPath id="clip0_2014_18">
<rect width="16" height="16" fill="white"/>
</clipPath>

<clipPath id="clip0_383_2041">
<rect width="25" height="15" fill="white"/>
</clipPath>

<clipPath id="clip0_383_2031">
<rect width="45" height="15" fill="white"/>
</clipPath>
</defs><symbol id="arrow-left" viewBox="0 0 24 24">
<path d="M16 6L10 12L16 18" stroke-linecap="round"/>
</symbol><symbol id="arrow-right" viewBox="0 0 24 24">
<path d="M10 6L16 12L10 18" stroke-linecap="round"/>
</symbol><symbol id="basket" viewBox="0 0 24 24">
<path d="M16 10C16 11.0609 15.5786 12.0783 14.8284 12.8284C14.0783 13.5786 13.0609 14 12 14C10.9391 14 9.92172 13.5786 9.17157 12.8284C8.42143 12.0783 8 11.0609 8 10M3.103 6.034H20.897M3.4 5.467C3.14036 5.81319 3 6.23426 3 6.667V20C3 20.5304 3.21071 21.0391 3.58579 21.4142C3.96086 21.7893 4.46957 22 5 22H19C19.5304 22 20.0391 21.7893 20.4142 21.4142C20.7893 21.0391 21 20.5304 21 20V6.667C21 6.23426 20.8596 5.81319 20.6 5.467L18.6 2.8C18.4137 2.55161 18.1721 2.35 17.8944 2.21115C17.6167 2.07229 17.3105 2 17 2H7C6.68951 2 6.38328 2.07229 6.10557 2.21115C5.82786 2.35 5.58629 2.55161 5.4 2.8L3.4 5.467Z" stroke-linecap="round"/>
</symbol><symbol id="cities" viewBox="0 0 16 16">
<path d="M6.00033 6.66666L7.33366 8L10.0003 5.33333M13.3337 6.66666C13.3337 9.99533 9.64099 13.462 8.40099 14.5327C8.28548 14.6195 8.14486 14.6665 8.00033 14.6665C7.85579 14.6665 7.71518 14.6195 7.59966 14.5327C6.35966 13.462 2.66699 9.99533 2.66699 6.66666C2.66699 5.25217 3.2289 3.89562 4.22909 2.89543C5.22928 1.89523 6.58584 1.33333 8.00033 1.33333C9.41481 1.33333 10.7714 1.89523 11.7716 2.89543C12.7718 3.89562 13.3337 5.25217 13.3337 6.66666Z" stroke-linecap="round"/>
</symbol><symbol id="city-arrow" viewBox="0 0 16 16">
<path d="M4 6L8 10L12 6" stroke-linecap="round"/>
</symbol><symbol id="close-button" viewBox="0 0 24 24">
<path d="M18 6L6 18M6 6L18 18" stroke-linecap="round"/>
</symbol><symbol id="close" viewBox="0 0 24 24">
<path d="M18 6L6 18M6 6L18 18" stroke-linecap="round"/>
</symbol><symbol id="compare" viewBox="0 0 24 24">
<path d="M5 21V15M12 21V3M19 21V9" stroke-linecap="round"/>
</symbol><symbol id="corner-bl" viewBox="0 0 17 17">
<path d="M0.5 0V16H16.5"/>
</symbol><symbol id="corner-br" viewBox="0 0 17 17">
<path d="M16 0V16H0"/>
</symbol><symbol id="corner-tl">
<path d="M0.5 16.5V0.5H16.5"/>
</symbol><symbol id="corner-tr" viewBox="0 0 17 17">
<path d="M16 16.5V0.5H0"/>
</symbol><symbol id="favorite" viewBox="0 0 24 24">
<path d="M2 9.5C2.00002 8.3872 2.33759 7.30059 2.96813 6.38367C3.59867 5.46675 4.49252 4.76266 5.53161 4.3644C6.5707 3.96614 7.70616 3.89245 8.78801 4.15305C9.86987 4.41365 10.8472 4.99628 11.591 5.824C11.6434 5.88002 11.7067 5.92467 11.7771 5.9552C11.8474 5.98573 11.9233 6.00149 12 6.00149C12.0767 6.00149 12.1526 5.98573 12.2229 5.9552C12.2933 5.92467 12.3566 5.88002 12.409 5.824C13.1504 4.9909 14.128 4.40337 15.2116 4.1396C16.2952 3.87584 17.4335 3.94835 18.4749 4.34749C19.5163 4.74662 20.4114 5.45345 21.0411 6.3739C21.6708 7.29435 22.0053 8.38476 22 9.5C22 11.79 20.5 13.5 19 15L13.508 20.313C13.3217 20.527 13.0919 20.6989 12.834 20.8173C12.5762 20.9357 12.296 20.9979 12.0123 20.9996C11.7285 21.0014 11.4476 20.9428 11.1883 20.8277C10.9289 20.7126 10.697 20.5436 10.508 20.332L5 15C3.5 13.5 2 11.8 2 9.5Z" stroke-linecap="round"/>
</symbol><symbol id="katalog" viewBox="0 0 24 24">
<path d="M9 3H4C3.44772 3 3 3.44772 3 4V9C3 9.55228 3.44772 10 4 10H9C9.55228 10 10 9.55228 10 9V4C10 3.44772 9.55228 3 9 3Z" stroke-linecap="round"/>
<path d="M20 3H15C14.4477 3 14 3.44772 14 4V9C14 9.55228 14.4477 10 15 10H20C20.5523 10 21 9.55228 21 9V4C21 3.44772 20.5523 3 20 3Z" stroke-linecap="round"/>
<path d="M20 14H15C14.4477 14 14 14.4477 14 15V20C14 20.5523 14.4477 21 15 21H20C20.5523 21 21 20.5523 21 20V15C21 14.4477 20.5523 14 20 14Z" stroke-linecap="round"/>
<path d="M9 14H4C3.44772 14 3 14.4477 3 15V20C3 20.5523 3.44772 21 4 21H9C9.55228 21 10 20.5523 10 20V15C10 14.4477 9.55228 14 9 14Z" stroke-linecap="round"/>
</symbol><symbol id="login" viewBox="0 0 24 24">
<path d="M12 13C14.7614 13 17 10.7614 17 8C17 5.23858 14.7614 3 12 3C9.23858 3 7 5.23858 7 8C7 10.7614 9.23858 13 12 13ZM12 13C14.1217 13 16.1566 13.8429 17.6569 15.3431C19.1571 16.8434 20 18.8783 20 21M12 13C9.87827 13 7.84344 13.8429 6.34315 15.3431C4.84285 16.8434 4 18.8783 4 21" stroke-linecap="round"/>
</symbol><symbol id="mir" viewBox="0 0 55 15">
<g clip-path="url(#clip0_383_2038)">
<path d="M0 0.00244101H5.15986C5.62893 0.00244101 7.03617 -0.153784 7.66161 2.03336C8.13068 3.43938 8.75612 5.62653 9.69428 8.90724H10.007C10.9452 5.4703 11.7269 3.12693 12.0397 2.03336C12.6651 -0.153784 14.2287 0.00244101 14.8541 0.00244101H19.7013V15H14.6978V6.0952H14.3851L11.7269 15H7.97432L5.31622 6.0952H4.84714V15H0M21.7339 0.00244101H26.7374V8.90724H27.2065L30.4901 1.56469C31.1155 0.158666 32.5227 0.00244101 32.5227 0.00244101H37.2135V15H32.21V6.0952H31.8973L28.6138 13.4378C27.9883 14.8438 26.4247 15 26.4247 15H21.7339M43.937 10.4695V15H39.2462V7.18877H54.5694C53.944 9.06347 51.7549 10.4695 49.2532 10.4695"/>
<path d="M54.8783 6.25289C55.5038 3.44085 53.6275 0.00390625 49.5621 0.00390625H38.9297C39.2424 3.28462 42.0569 6.25289 45.0277 6.25289"/>
</g>

</symbol><symbol id="phone" viewBox="0 0 18 18">
<g clip-path="url(#clip0_383_3013)">
<path d="M9.22198 11.0453C9.35967 11.1086 9.51478 11.123 9.66178 11.0863C9.80877 11.0496 9.93887 10.9639 10.0307 10.8433L10.2673 10.5333C10.3915 10.3677 10.5526 10.2333 10.7377 10.1408C10.9228 10.0482 11.127 9.99999 11.334 9.99999H13.334C13.6876 9.99999 14.0267 10.1405 14.2768 10.3905C14.5268 10.6406 14.6673 10.9797 14.6673 11.3333V13.3333C14.6673 13.6869 14.5268 14.0261 14.2768 14.2761C14.0267 14.5262 13.6876 14.6667 13.334 14.6667C10.1514 14.6667 7.09914 13.4024 4.8487 11.1519C2.59827 8.90151 1.33398 5.84926 1.33398 2.66666C1.33398 2.31304 1.47446 1.9739 1.72451 1.72385C1.97456 1.4738 2.3137 1.33333 2.66732 1.33333H4.66732C5.02094 1.33333 5.36008 1.4738 5.61013 1.72385C5.86017 1.9739 6.00065 2.31304 6.00065 2.66666V4.66666C6.00065 4.87365 5.95246 5.07781 5.85989 5.26295C5.76732 5.44809 5.63291 5.60913 5.46732 5.73333L5.15532 5.96733C5.03293 6.06078 4.94666 6.19372 4.91118 6.34356C4.87569 6.4934 4.89317 6.65091 4.96065 6.78933C5.87177 8.63991 7.37027 10.1365 9.22198 11.0453Z" stroke-linecap="round"/>
</g>

</symbol><symbol id="points" viewBox="0 0 16 16">
<g clip-path="url(#clip0_2014_18)">
<path d="M11.9997 6.66666C11.9997 5.25217 11.4378 3.89562 10.4376 2.89543C9.43738 1.89523 8.08083 1.33333 6.66634 1.33333C5.25185 1.33333 3.8953 1.89523 2.8951 2.89543C1.89491 3.89562 1.33301 5.25217 1.33301 6.66666C1.33301 9.99533 5.02567 13.462 6.26567 14.5327C6.38125 14.6193 6.52187 14.6661 6.66634 14.666M11.9997 14.6667V12.6667M9.99967 14.6667C9.82286 14.6667 9.65329 14.5964 9.52827 14.4714C9.40325 14.3464 9.33301 14.1768 9.33301 14V11.3333C9.33299 11.2236 9.36006 11.1156 9.41181 11.0188C9.46356 10.922 9.5384 10.8396 9.62967 10.7787L11.6297 9.44533C11.7392 9.37224 11.868 9.33323 11.9997 9.33323C12.1314 9.33323 12.2601 9.37224 12.3697 9.44533L14.3697 10.7787C14.461 10.8396 14.5358 10.922 14.5875 11.0188C14.6393 11.1156 14.6664 11.2236 14.6663 11.3333V14C14.6663 14.1768 14.5961 14.3464 14.4711 14.4714C14.3461 14.5964 14.1765 14.6667 13.9997 14.6667H9.99967ZM8.66634 6.66666C8.66634 7.77123 7.77091 8.66666 6.66634 8.66666C5.56177 8.66666 4.66634 7.77123 4.66634 6.66666C4.66634 5.56209 5.56177 4.66666 6.66634 4.66666C7.77091 4.66666 8.66634 5.56209 8.66634 6.66666Z" stroke-linecap="round"/>
</g>

</symbol><symbol id="search" viewBox="0 0 24 24">
    <path d="M21 21L16.66 16.66M19 11C19 15.4183 15.4183 19 11 19C6.58172 19 3 15.4183 3 11C3 6.58172 6.58172 3 11 3C15.4183 3 19 6.58172 19 11Z" stroke-linecap="round"/>
</symbol><symbol id="telegram" viewBox="0 0 18 18">
<path d="M15.75 3.75L1.5 9.375L6.75 10.125M15.75 3.75L13.875 15L6.75 10.125M15.75 3.75L6.75 10.125M6.75 10.125V14.25L9.18675 11.7922" stroke-linecap="round"/>
</symbol><symbol id="union" viewBox="0 0 25 15">
<g clip-path="url(#clip0_383_2041)">
<path opacity="0.4" d="M15.8748 1.60156H9.10938V13.3928H15.8748V1.60156Z"/>
<path d="M9.55765 7.5C9.55765 5.10437 10.7186 2.97816 12.5 1.60437C11.189 0.604369 9.53513 0 7.73118 0C3.45777 0 0 3.35437 0 7.5C0 11.6456 3.45777 15 7.73118 15C9.53513 15 11.189 14.3956 12.5 13.3956C10.7161 12.0413 9.55765 9.89563 9.55765 7.5Z"/>
<path d="M25 7.5C25 11.6456 21.5422 15 17.2688 15C15.4649 15 13.811 14.3956 12.5 13.3956C14.3039 12.0194 15.4424 9.89563 15.4424 7.5C15.4424 5.10437 14.2814 2.97816 12.5 1.60437C13.8085 0.604369 15.4624 0 17.2663 0C21.5422 0 25 3.37621 25 7.5Z"/>
</g>

</symbol><symbol id="visa" viewBox="0 0 45 15">
<g clip-path="url(#clip0_383_2031)">
<path d="M19.5047 14.786H15.8594L18.1394 0.265625H21.7845L19.5047 14.786Z"/>
<path d="M32.7162 0.618191C31.9972 0.324391 30.8568 0 29.4466 0C25.8468 0 23.3118 1.97714 23.2962 4.80386C23.2663 6.88941 25.1112 8.04777 26.491 8.74316C27.9014 9.45374 28.3808 9.91754 28.3808 10.5509C28.3664 11.5237 27.2411 11.9721 26.1916 11.9721C24.7363 11.9721 23.9564 11.7409 22.7714 11.1997L22.2914 10.9677L21.7812 14.2272C22.6362 14.6284 24.2114 14.9844 25.8468 15C29.6717 15 32.1618 13.0535 32.1913 10.0411C32.2059 8.38818 31.2317 7.12161 29.1315 6.08664C27.8565 5.42226 27.0757 4.97427 27.0757 4.29449C27.0907 3.6765 27.7361 3.04353 29.1753 3.04353C30.3604 3.01252 31.2311 3.30591 31.8907 3.59951L32.2204 3.7537L32.7162 0.618191Z"/>
<path d="M37.5618 9.64196C37.862 8.80778 39.0172 5.57927 39.0172 5.57927C39.002 5.61027 39.3168 4.7297 39.4968 4.18911L39.7515 5.44028C39.7515 5.44028 40.4418 8.91598 40.5917 9.64196C40.022 9.64196 38.2818 9.64196 37.5618 9.64196ZM42.0615 0.265625H39.2418C38.3723 0.265625 37.7117 0.528012 37.3365 1.47039L31.9219 14.7858H35.7468C35.7468 14.7858 36.3765 12.9937 36.5119 12.6077C36.9315 12.6077 40.6523 12.6077 41.1921 12.6077C41.2968 13.1175 41.6271 14.7858 41.6271 14.7858H45.0023L42.0615 0.265625Z"/>
<path d="M12.8125 0.265625L9.2425 10.1671L8.85239 8.159C8.19238 5.84187 6.12244 3.32434 3.8125 2.07257L7.08246 14.7706H10.9373L16.6671 0.265625H12.8125Z"/>
<path d="M5.92496 0.265625H0.0600008L0 0.559014C4.57503 1.76398 7.60499 4.66851 8.84986 8.15962L7.57489 1.4862C7.36498 0.558809 6.71992 0.296216 5.92496 0.265625Z"/>
</g>

</symbol><symbol id="vk" viewBox="0 0 24 24">
<g opacity="0.7">
<path d="M14.2 10.5406V6.22861C14.2 5.25678 14.0339 5.06195 13.122 5.06195L10.537 5.00012C9.73178 5.00012 9.32919 5.00012 9.16639 5.27662C9.00359 5.55311 9.18399 5.93228 9.54369 6.68827C9.74388 7.10827 9.85168 7.41276 9.85168 7.88409V10.9874C9.85168 11.9674 9.85168 12.4586 9.49969 12.6044C9.14769 12.7491 8.85619 12.4201 8.27099 11.7621C6.841 10.1474 6.09521 8.13143 5.60571 5.93344C5.50451 5.47845 5.45391 5.25095 5.30211 5.12495C5.15031 4.99895 4.93361 5.00012 4.50241 5.00012H2.08243C1.55223 5.00012 1.28713 5.00012 1.12103 5.19845C0.956035 5.39795 0.987935 5.65228 1.05173 6.15977C1.63253 10.7412 5.43081 18.2533 12.4477 18.9697C13.6907 19.0957 14.2 18.7398 14.2 17.2955C14.2 16.4765 14.1835 15.1535 15.1548 14.9797C15.664 14.8887 16.0061 15.0812 16.5748 15.5864C17.5604 16.4637 18.0774 17.5347 18.4371 18.3478C18.6758 18.8868 18.8529 19 19.4139 19H21.6953C22.8481 19 23.1616 18.7013 22.6479 17.5533C22.0673 16.2659 21.2454 15.1175 20.2323 14.1782C19.5327 13.54 19.184 13.2215 19.1653 12.9859C19.1444 12.7514 19.4007 12.4189 19.9133 11.7539C20.9033 10.4682 22.2519 8.45109 22.8811 6.31027C23.1935 5.24862 22.8998 5.00012 21.8867 5.00012H19.8374C18.8441 5.00012 18.8452 4.96395 18.6109 6.15861C18.2303 8.09643 16.9851 9.95958 15.8147 11.2277C15.2593 11.8297 14.9238 12.1926 14.5773 12.0444C14.2308 11.8962 14.2 11.4459 14.2 10.5406Z" stroke-linecap="round"/>
</g>
</symbol><symbol id="whatsapp" viewBox="0 0 17 17">
<path d="M8.25 15.75V15H8.24951L8.25 15.75ZM1.338 11.166L0.646948 11.4575L0.647188 11.458L1.338 11.166ZM1.665 12.096L2.41328 12.0451L2.41306 12.0421L1.665 12.096ZM1.512 12.9008L0.787521 12.7068L0.787463 12.707L1.512 12.9008ZM0.75 15.75L0.0254633 15.5562C-0.0437309 15.815 0.0302915 16.091 0.21967 16.2803C0.409049 16.4697 0.685041 16.5437 0.943769 16.4745L0.75 15.75ZM3.59925 14.988L3.79302 15.7125L3.79324 15.7125L3.59925 14.988ZM4.404 14.835L4.45786 14.0869L4.4519 14.0865L4.404 14.835ZM5.334 15.162L5.04198 15.8528L5.04289 15.8532L5.334 15.162ZM6.34425 7.722L6.92826 8.19256L6.92852 8.19224L6.34425 7.722ZM6.987 6.606L7.73564 6.65156L7.73598 6.64516L6.987 6.606ZM6.75075 4.9425L7.49177 4.8268L7.49166 4.82609L6.75075 4.9425ZM5.12625 4.5975L5.43704 5.28008L5.43932 5.27903L5.12625 4.5975ZM4.52175 5.35275L3.78782 5.19834L3.78774 5.19873L4.52175 5.35275ZM4.581 6.054L5.31263 5.88904L5.31252 5.88854L4.581 6.054ZM6.68925 9.81075L6.15874 10.3409L6.1591 10.3413L6.68925 9.81075ZM10.4468 11.919L10.6122 11.1875L10.6116 11.1873L10.4468 11.919ZM11.1473 11.9783L10.9947 11.2439L10.9932 11.2442L11.1473 11.9783ZM11.9033 11.3738L12.5851 11.6861L12.5857 11.6848L11.9033 11.3738ZM11.5575 9.74925L11.6739 9.00834L11.6737 9.00831L11.5575 9.74925ZM9.894 9.513L9.85484 8.76401L9.8496 8.76432L9.894 9.513ZM8.778 10.1558L9.24823 10.74L9.24824 10.74L8.778 10.1558ZM8.25 15.75V16.5C12.8065 16.5 16.5 12.8065 16.5 8.25H15.75H15C15 11.978 11.978 15 8.25 15V15.75ZM15.75 8.25H16.5C16.5 3.69354 12.8065 0 8.25 0V0.75V1.5C11.978 1.5 15 4.52196 15 8.25H15.75ZM8.25 0.75V0C3.69354 0 0 3.69354 0 8.25H0.75H1.5C1.5 4.52196 4.52196 1.5 8.25 1.5V0.75ZM0.75 8.25H0C0 9.38659 0.230918 10.471 0.646948 11.4575L1.338 11.166L2.02905 10.8745C1.68908 10.0685 1.5 9.18191 1.5 8.25H0.75ZM1.338 11.166L0.647188 11.458C0.754679 11.7123 0.824523 11.8783 0.870653 12.0042C0.917994 12.1335 0.917877 12.1629 0.916937 12.1499L1.665 12.096L2.41306 12.0421C2.39862 11.8416 2.33963 11.6535 2.27916 11.4884C2.21748 11.32 2.13057 11.1147 2.02881 10.874L1.338 11.166ZM1.665 12.096L0.916728 12.1469C0.918906 12.1789 0.913292 12.2371 0.787521 12.7068L1.512 12.9008L2.23648 13.0947C2.33121 12.741 2.43659 12.3881 2.41327 12.0451L1.665 12.096ZM1.512 12.9008L0.787463 12.707L0.0254633 15.5562L0.75 15.75L1.47454 15.9438L2.23654 13.0945L1.512 12.9008ZM0.75 15.75L0.943769 16.4745L3.79302 15.7125L3.59925 14.988L3.40548 14.2635L0.556231 15.0255L0.75 15.75ZM3.59925 14.988L3.79324 15.7125C4.25996 15.5875 4.32169 15.5813 4.3561 15.5835L4.404 14.835L4.4519 14.0865C4.11131 14.0647 3.76204 14.168 3.40526 14.2635L3.59925 14.988ZM4.404 14.835L4.35014 15.5831C4.33708 15.5821 4.3665 15.582 4.49576 15.6294C4.62172 15.6755 4.7877 15.7453 5.04198 15.8528L5.334 15.162L5.62603 14.4712C5.38531 14.3694 5.18004 14.2825 5.01162 14.2208C4.8465 14.1604 4.65842 14.1014 4.45786 14.0869L4.404 14.835ZM5.334 15.162L5.04289 15.8532C6.05819 16.2808 7.14883 16.5007 8.25049 16.5L8.25 15.75L8.24951 15C7.34815 15.0006 6.4558 14.8207 5.62511 14.4708L5.334 15.162ZM5.691 8.53275L6.27501 9.00331L6.92826 8.19256L6.34425 7.722L5.76024 7.25144L5.10699 8.06219L5.691 8.53275ZM6.34425 7.722L6.92852 8.19224C7.01682 8.08253 7.23494 7.83821 7.37715 7.63066C7.54286 7.3888 7.71049 7.0645 7.73562 6.65156L6.987 6.606L6.23839 6.56044C6.23576 6.6035 6.21965 6.6662 6.13973 6.78284C6.09873 6.84268 6.04775 6.90706 5.98117 6.9868C5.92316 7.05629 5.83357 7.16032 5.75998 7.25176L6.34425 7.722ZM6.987 6.606L7.73598 6.64516C7.74127 6.54389 7.72858 6.42856 7.72039 6.35726C7.70981 6.26521 7.69391 6.14879 7.67377 6.01047C7.63341 5.73318 7.57207 5.34109 7.49177 4.8268L6.75075 4.9425L6.00973 5.0582C6.09068 5.57666 6.15047 5.95895 6.18942 6.22653C6.20894 6.36065 6.22224 6.45929 6.2302 6.52854C6.24054 6.61853 6.23573 6.61074 6.23802 6.56684L6.987 6.606ZM6.75075 4.9425L7.49166 4.82609C7.41559 4.34193 7.11414 4.02734 6.75265 3.87676C6.45755 3.75383 6.14549 3.75 5.97975 3.75V4.5V5.25C6.05044 5.25 6.10172 5.25219 6.14136 5.25688C6.182 5.26169 6.18883 5.26684 6.17585 5.26143C6.15865 5.25426 6.11314 5.23088 6.06977 5.17804C6.02459 5.123 6.01204 5.07294 6.00984 5.05891L6.75075 4.9425ZM5.97975 4.5V3.75C5.60705 3.75 5.20611 3.73547 4.81318 3.91597L5.12625 4.5975L5.43932 5.27903C5.44831 5.27491 5.46698 5.2658 5.54051 5.25908C5.63217 5.2507 5.75327 5.25 5.97975 5.25V4.5ZM5.12625 4.5975L4.81547 3.91492C4.54366 4.03868 4.3198 4.24501 4.16048 4.44412C4.00112 4.64329 3.84918 4.90667 3.78782 5.19834L4.52175 5.35275L5.25568 5.50716C5.2542 5.51421 5.25599 5.50232 5.27075 5.47369C5.28479 5.44646 5.30542 5.41411 5.33171 5.38126C5.358 5.3484 5.38497 5.32125 5.40834 5.30169C5.43293 5.28112 5.44391 5.27695 5.43703 5.28008L5.12625 4.5975ZM4.52175 5.35275L3.78774 5.19873C3.70115 5.61138 3.78305 5.92579 3.84948 6.21946L4.581 6.054L5.31252 5.88854C5.27373 5.71704 5.25835 5.6448 5.25208 5.58835C5.24842 5.55532 5.24903 5.53886 5.25576 5.50677L4.52175 5.35275ZM4.581 6.054L3.84936 6.21896C4.18275 7.69765 4.96284 9.14418 6.15874 10.3409L6.68925 9.81075L7.21976 9.2806C6.21966 8.27982 5.58225 7.08485 5.31263 5.88904L4.581 6.054ZM6.68925 9.81075L6.1591 10.3413C7.35584 11.5372 8.80241 12.3173 10.2819 12.6507L10.4468 11.919L10.6116 11.1873C9.41509 10.9177 8.22016 10.2803 7.2194 9.28024L6.68925 9.81075ZM10.4468 11.919L10.2813 12.6505C10.5747 12.7169 10.8885 12.7989 11.3013 12.7123L11.1473 11.9783L10.9932 11.2442C10.961 11.251 10.9448 11.2516 10.9122 11.2479C10.8559 11.2417 10.784 11.2263 10.6122 11.1875L10.4468 11.919ZM11.1473 11.9783L11.2998 12.7126C11.5929 12.6517 11.857 12.4991 12.056 12.3398C12.2553 12.1803 12.4611 11.9567 12.5851 11.6861L11.9033 11.3738L11.2214 11.0614C11.2243 11.0551 11.2197 11.0666 11.1989 11.0915C11.1791 11.1151 11.1517 11.1423 11.1188 11.1686C11.0859 11.195 11.0536 11.2155 11.0266 11.2294C10.9982 11.244 10.9868 11.2456 10.9947 11.2439L11.1473 11.9783ZM11.9033 11.3738L12.5857 11.6848C12.7644 11.2929 12.75 10.8932 12.75 10.5203H12H11.25C11.25 10.7466 11.2493 10.868 11.241 10.96C11.2343 11.0341 11.2251 11.0533 11.2208 11.0627L11.9033 11.3738ZM12 10.5203H12.75C12.75 10.3543 12.7462 10.0421 12.6232 9.74691C12.4724 9.38508 12.1575 9.08432 11.6739 9.00834L11.5575 9.74925L11.4411 10.4902C11.4273 10.488 11.3774 10.4756 11.3223 10.4304C11.2694 10.387 11.2459 10.3414 11.2386 10.324C11.2332 10.3109 11.2383 10.3176 11.2431 10.3583C11.2478 10.398 11.25 10.4493 11.25 10.5203H12ZM11.5575 9.74925L11.6737 9.00831C11.1591 8.92758 10.7669 8.86623 10.4893 8.82591C10.3508 8.8058 10.2343 8.78997 10.1422 8.77945C10.0706 8.77127 9.95572 8.75875 9.85484 8.76402L9.894 9.513L9.93316 10.262C9.88966 10.2643 9.88229 10.2595 9.972 10.2698C10.0412 10.2777 10.1397 10.2909 10.2737 10.3103C10.5409 10.3491 10.9232 10.4089 11.4413 10.4902L11.5575 9.74925ZM9.894 9.513L9.8496 8.76432C9.43612 8.78884 9.11131 8.95694 8.86956 9.12262C8.66199 9.26487 8.41739 9.48325 8.30776 9.57148L8.778 10.1558L9.24824 10.74C9.33972 10.6664 9.44377 10.5768 9.51334 10.5187C9.59316 10.452 9.65762 10.401 9.71751 10.3599C9.83444 10.2798 9.89663 10.2642 9.9384 10.2617L9.894 9.513ZM8.778 10.1558L8.30777 9.57147L7.49702 10.224L7.96725 10.8083L8.43748 11.3925L9.24823 10.74L8.778 10.1558Z"/>
</symbol><symbol id="youtube" viewBox="0 0 24 24">
<g opacity="0.7">
<path d="M2.5005 17C1.80192 13.7033 1.80192 10.2967 2.5005 7C2.59228 6.66521 2.76963 6.36007 3.0151 6.11461C3.26057 5.86914 3.5657 5.69179 3.9005 5.6C9.26394 4.71146 14.737 4.71146 20.1005 5.6C20.4353 5.69179 20.7404 5.86914 20.9859 6.11461C21.2314 6.36007 21.4087 6.66521 21.5005 7C22.1991 10.2967 22.1991 13.7033 21.5005 17C21.4087 17.3348 21.2314 17.6399 20.9859 17.8854C20.7404 18.1309 20.4353 18.3082 20.1005 18.4C14.7371 19.2887 9.26393 19.2887 3.9005 18.4C3.5657 18.3082 3.26057 18.1309 3.0151 17.8854C2.76963 17.6399 2.59228 17.3348 2.5005 17Z" stroke-linecap="round"/>
<path d="M10.0005 15L15.0005 12L10.0005 9V15Z" stroke-linecap="round"/>
</g>
</symbol></svg>